<!DOCTYPE svg PUBLIC "-//W3C//DTD SVG 1.1//EN" "http://www.w3.org/Graphics/SVG/1.1/DTD/svg11.dtd">
<svg version="1.1" id="Camada_1" xmlns="http://www.w3.org/2000/svg" xmlns:xlink="http://www.w3.org/1999/xlink" x="0px" y="0px"
	 width="103px" height="35px" viewBox="0 0 103 35" enable-background="new 0 0 103 35" xml:space="preserve">
<path fill="#FED700" d="M5.227,20.73c0-3.769,0.025-8.771,2.486-11.268c2.531-2.568,7.553-2.575,11.457-2.575
	c7.701,0,13.945,6.197,13.945,13.842c0,3.822,0.037,8.977-2.486,11.48S23.022,34.57,19.17,34.57
	C11.469,34.572,5.227,28.375,5.227,20.73z"/>
<path fill="#FED700" d="M5.227,20.73c0-3.769,0.025-8.771,2.486-11.268c2.531-2.568,7.553-2.575,11.457-2.575
	c7.701,0,13.945,6.197,13.945,13.842c0,3.822,0.037,8.977-2.486,11.48S23.022,34.57,19.17,34.57
	C11.469,34.572,5.227,28.375,5.227,20.73z"/>
<path opacity="0.04" fill="#12100B" enable-background="new    " d="M33.116,20.73c0-7.646-6.244-13.842-13.945-13.842
	c-1.807,0-3.854,0.002-5.781,0.258c1.518,0.082,3.039,0.281,4.42,0.465c7.635,1.009,13.014,7.971,12.01,15.55
	c-0.5,3.789-1.139,8.903-3.969,11.056c-0.027,0.021-0.059,0.041-0.086,0.063c1.926-0.297,3.678-0.889,4.865-2.066
	C33.153,29.707,33.116,24.553,33.116,20.73z"/>
<path fill="#429835" d="M7.604,9.912c0,0,6.023,1.205,5.873-9.486C11.52,1.328,3.991,4.039,7.604,9.912z"/>
<path fill="#429835" d="M7.678,10.12c0,0-2.012-5.068-7.373-0.827C4.04,14.019,7.678,10.12,7.678,10.12z"/>
<path opacity="0.04" fill="#12100B" enable-background="new    " d="M7.545,10.25c0.086-0.08,0.133-0.13,0.133-0.13
	s-1.67-4.208-6.025-1.744C3.471,8.869,6.319,9.83,7.545,10.25z"/>
<path opacity="0.04" fill="#12100B" enable-background="new    " d="M7.604,9.912c0,0,0.115,0.023,0.313,0.035
	c0.65-2.466,1.754-6.07,3.141-8.397C8.311,2.988,4.948,5.597,7.604,9.912z"/>
<g enable-background="new    ">
	<path fill="#FFFFFF" d="M48.64,24.02v2.686h-9.283V12.811h3.128V24.02H48.64z"/>
	<path fill="#FFFFFF" d="M50.645,12.811h3.128v13.894h-3.128V12.811z"/>
	<path fill="#FFFFFF" d="M60.67,12.811c0.241,0.44,0.52,0.985,0.834,1.634s0.643,1.351,0.984,2.105s0.681,1.528,1.016,2.315
		c0.336,0.789,0.65,1.531,0.945,2.227c0.295-0.695,0.609-1.438,0.945-2.227c0.334-0.787,0.673-1.56,1.015-2.315
		s0.67-1.457,0.985-2.105c0.314-0.648,0.593-1.193,0.834-1.634h2.848c0.133,0.922,0.257,1.955,0.371,3.098
		c0.113,1.143,0.213,2.333,0.301,3.568c0.086,1.238,0.166,2.477,0.24,3.721c0.073,1.242,0.137,2.412,0.189,3.508h-3.047
		c-0.04-1.35-0.094-2.82-0.16-4.41c-0.067-1.592-0.168-3.195-0.301-4.812c-0.242,0.56-0.51,1.183-0.805,1.865
		s-0.587,1.363-0.875,2.045s-0.566,1.334-0.834,1.955c-0.27,0.621-0.497,1.152-0.685,1.594h-2.186
		c-0.188-0.441-0.415-0.973-0.684-1.594s-0.547-1.273-0.835-1.955c-0.289-0.682-0.58-1.363-0.875-2.045s-0.563-1.305-0.805-1.865
		c-0.133,1.617-0.234,3.22-0.301,4.812c-0.066,1.59-0.12,3.061-0.16,4.41H56.58c0.053-1.096,0.116-2.266,0.189-3.508
		c0.074-1.244,0.154-2.482,0.241-3.721c0.087-1.234,0.187-2.425,0.301-3.568c0.113-1.143,0.237-2.176,0.37-3.098H60.67z"/>
	<path fill="#FFFFFF" d="M80.398,26.986c-0.976,0-1.817-0.137-2.525-0.41c-0.709-0.275-1.293-0.656-1.755-1.145
		c-0.461-0.486-0.802-1.068-1.022-1.744c-0.221-0.674-0.331-1.42-0.331-2.234v-8.642h3.128v8.38c0,0.563,0.063,1.039,0.19,1.434
		s0.301,0.715,0.521,0.963s0.487,0.424,0.802,0.531s0.658,0.16,1.033,0.16c0.762,0,1.379-0.234,1.854-0.701
		c0.475-0.469,0.713-1.264,0.713-2.387v-8.38h3.127v8.642c0,0.814-0.113,1.563-0.34,2.244c-0.229,0.682-0.576,1.268-1.043,1.756
		c-0.469,0.488-1.063,0.865-1.785,1.133C82.244,26.852,81.389,26.986,80.398,26.986z"/>
	<path fill="#FFFFFF" d="M98.464,26.705c-0.896-1.59-1.864-3.16-2.907-4.711s-2.152-3.014-3.328-4.391v9.102h-3.088V12.811h2.547
		c0.44,0.44,0.928,0.982,1.463,1.624s1.08,1.326,1.635,2.055s1.105,1.484,1.654,2.266c0.547,0.781,1.063,1.533,1.543,2.256v-8.201
		h3.107v13.894H98.464z"/>
</g>
</svg>
