<!DOCTYPE svg PUBLIC "-//W3C//DTD SVG 1.1//EN" "http://www.w3.org/Graphics/SVG/1.1/DTD/svg11.dtd">
<svg version="1.1" id="Camada_1" xmlns="http://www.w3.org/2000/svg" xmlns:xlink="http://www.w3.org/1999/xlink" x="0px" y="0px"
	 width="280px" height="100px" viewBox="0 0 337.529 100" enable-background="new 0 0 337.529 100" xml:space="preserve">
<g>
	<polygon fill="#669ED5" points="0,49.751 34.271,0 69.17,49.751 34.208,100 	"/>
	<polygon fill="#2D6FB0" points="34.192,68.816 34.271,0 82.492,68.816 	"/>
</g>
<g enable-background="new    ">
	<path fill="#2D6FB0" d="M127.466,67.656c-1.801,0.9-5.853,1.865-11.126,1.865c-14.986,0-22.704-9.326-22.704-21.675
		c0-14.793,10.548-23.025,23.668-23.025c5.081,0,8.94,1.029,10.676,1.93l-1.994,7.782c-1.994-0.836-4.759-1.607-8.232-1.607
		c-7.782,0-13.828,4.694-13.828,14.342c0,8.682,5.146,14.149,13.892,14.149c2.958,0,6.239-0.643,8.168-1.414L127.466,67.656z"/>
	<path fill="#2D6FB0" d="M171.653,46.752c0,14.214-8.618,22.832-21.289,22.832c-12.863,0-20.388-9.711-20.388-22.059
		c0-12.992,8.297-22.704,21.096-22.704C164.385,24.821,171.653,34.791,171.653,46.752z M140.331,47.332
		c0,8.491,3.987,14.471,10.548,14.471c6.625,0,10.419-6.303,10.419-14.728c0-7.782-3.73-14.472-10.483-14.472
		C144.19,32.603,140.331,38.907,140.331,47.332z"/>
	<path fill="#2D6FB0" d="M184.648,33.761h-11.642v-8.232h33.315v8.232h-11.834v35.116h-9.84V33.761z"/>
	<path fill="#2D6FB0" d="M221.372,25.529v43.348h-9.84V25.529H221.372z"/>
	<path fill="#2D6FB0" d="M266.073,66.883c-3.022,1.029-8.747,2.445-14.471,2.445c-7.911,0-13.635-1.994-17.623-5.854
		c-3.987-3.73-6.175-9.391-6.11-15.757c0.064-14.406,10.549-22.639,24.762-22.639c5.596,0,9.905,1.093,12.027,2.122l-2.058,7.847
		c-2.38-1.029-5.339-1.865-10.098-1.865c-8.168,0-14.343,4.631-14.343,14.021c0,8.94,5.596,14.213,13.635,14.213
		c2.251,0,4.052-0.256,4.824-0.643v-9.068h-6.689v-7.654h16.144V66.883z"/>
	<path fill="#2D6FB0" d="M299.519,50.547h-15.95v10.291h17.815v8.039h-27.655V25.529h26.755v8.039h-16.915v9.005h15.95V50.547z"/>
	<path fill="#2D6FB0" d="M308.075,25.529h9.84v35.116h17.237v8.232h-27.077V25.529z"/>
</g>
</svg>
