<!-- Generator: Adobe Illustrator 16.0.0, SVG Export Plug-In . SVG Version: 6.00 Build 0)  -->
<!DOCTYPE svg PUBLIC "-//W3C//DTD SVG 1.1//EN" "http://www.w3.org/Graphics/SVG/1.1/DTD/svg11.dtd">
<svg version="1.1" id="Layer_1" xmlns="http://www.w3.org/2000/svg" xmlns:xlink="http://www.w3.org/1999/xlink" x="0px" y="0px"
	 width="226px" height="80px" viewBox="0 0 226 80" style="enable-background:new 0 0 226 80;" xml:space="preserve">
<style type="text/css">
<![CDATA[
	.st0-footer{fill:#5D9BD3;}
	.st1-footer{fill:#2E73B2;}
	.st2-footer{fill:#FFFFFF;}
]]>
</style>
<g>
	<polygon class="st0-footer" points="2.7,39.8 29.8,0.5 57.4,39.8 29.8,79.5 	"/>
	<polygon class="st1-footer" points="29.7,54.9 29.8,0.5 67.9,54.9 	"/>
</g>
<g>
	<path class="st1-footer" d="M99.1,47.1c-1.1,0.5-3.5,1.1-6.6,1.1c-8.9,0-13.5-5.5-13.5-12.9c0-8.8,6.3-13.7,14-13.7c3,0,5.3,0.6,6.3,1.1
		l-1.2,4.6c-1.2-0.5-2.8-1-4.9-1c-4.6,0-8.2,2.8-8.2,8.5c0,5.2,3.1,8.4,8.2,8.4c1.8,0,3.7-0.4,4.8-0.8L99.1,47.1z"/>
	<path class="st1-footer" d="M125.3,34.7c0,8.4-5.1,13.5-12.6,13.5c-7.6,0-12.1-5.8-12.1-13.1c0-7.7,4.9-13.5,12.5-13.5
		C121,21.6,125.3,27.6,125.3,34.7z M106.8,35c0,5,2.4,8.6,6.3,8.6c3.9,0,6.2-3.7,6.2-8.7c0-4.6-2.2-8.6-6.2-8.6
		C109,26.3,106.8,30,106.8,35z"/>
	<path class="st1-footer" d="M133.1,27h-6.9v-4.9h19.8V27h-7v20.8h-5.8V27z"/>
	<path class="st1-footer" d="M154.8,22.1v25.7H149V22.1H154.8z"/>
	<path class="st1-footer" d="M181.4,46.6c-1.8,0.6-5.2,1.5-8.6,1.5c-4.7,0-8.1-1.2-10.5-3.5c-2.4-2.2-3.7-5.6-3.6-9.3
		c0-8.5,6.3-13.4,14.7-13.4c3.3,0,5.9,0.6,7.1,1.3l-1.2,4.7c-1.4-0.6-3.2-1.1-6-1.1c-4.8,0-8.5,2.7-8.5,8.3c0,5.3,3.3,8.4,8.1,8.4
		c1.3,0,2.4-0.2,2.9-0.4v-5.4h-4v-4.5h9.6V46.6z"/>
	<path class="st1-footer" d="M201.2,36.9h-9.5V43h10.6v4.8h-16.4V22.1h15.9v4.8h-10v5.3h9.5V36.9z"/>
	<path class="st1-footer" d="M206.3,22.1h5.8v20.8h10.2v4.9h-16.1V22.1z"/>
</g>
<g>
	<path class="st2-footer" d="M81.6,56.8l-0.6,1.9h-0.8l2.1-6.2h1l2.1,6.2h-0.9l-0.7-1.9H81.6z M83.6,56.2L83,54.4c-0.1-0.4-0.2-0.8-0.3-1.1
		h0c-0.1,0.4-0.2,0.7-0.3,1.1l-0.6,1.8H83.6z"/>
	<path class="st2-footer" d="M90,52.7c0.4-0.1,1-0.1,1.5-0.1c0.9,0,1.4,0.2,1.8,0.5c0.3,0.3,0.5,0.7,0.5,1.2c0,0.8-0.5,1.4-1.2,1.6v0
		c0.5,0.2,0.8,0.6,0.9,1.2c0.2,0.9,0.3,1.5,0.5,1.7h-0.8c-0.1-0.2-0.2-0.7-0.4-1.5c-0.2-0.8-0.5-1.2-1.2-1.2h-0.7v2.7H90V52.7z
		 M90.8,55.5h0.8c0.9,0,1.4-0.5,1.4-1.2c0-0.8-0.6-1.1-1.4-1.2c-0.4,0-0.7,0-0.8,0.1V55.5z"/>
	<path class="st2-footer" d="M112.8,58.5c-0.3,0.1-0.9,0.3-1.6,0.3c-1.7,0-3-1.1-3-3.1c0-1.9,1.3-3.2,3.2-3.2c0.8,0,1.3,0.2,1.5,0.3
		l-0.2,0.6c-0.3-0.1-0.7-0.3-1.2-0.3c-1.4,0-2.4,0.9-2.4,2.5c0,1.5,0.9,2.5,2.4,2.5c0.5,0,1-0.1,1.3-0.3L112.8,58.5z"/>
	<path class="st2-footer" d="M123,55.6c0,2.1-1.3,3.2-2.9,3.2c-1.6,0-2.8-1.3-2.8-3.1c0-2,1.2-3.2,2.9-3.2C121.9,52.5,123,53.8,123,55.6z
		 M118.2,55.7c0,1.3,0.7,2.5,2,2.5c1.3,0,2-1.2,2-2.6c0-1.2-0.6-2.5-2-2.5C118.8,53.1,118.2,54.4,118.2,55.7z"/>
	<path class="st2-footer" d="M127.9,58.7v-6.2h0.9l2,3.1c0.5,0.7,0.8,1.4,1.1,2l0,0c-0.1-0.8-0.1-1.6-0.1-2.5v-2.6h0.7v6.2h-0.8l-2-3.1
		c-0.4-0.7-0.8-1.4-1.2-2.1l0,0c0,0.8,0.1,1.5,0.1,2.5v2.6H127.9z"/>
	<path class="st2-footer" d="M137.8,52.7c0.5-0.1,1.1-0.1,1.7-0.1c1.1,0,2,0.3,2.5,0.8c0.5,0.5,0.9,1.2,0.9,2.2c0,1-0.3,1.8-0.9,2.4
		c-0.6,0.6-1.5,0.9-2.7,0.9c-0.6,0-1,0-1.4-0.1V52.7z M138.6,58.1c0.2,0,0.5,0,0.8,0c1.7,0,2.6-1,2.6-2.6c0-1.5-0.8-2.4-2.5-2.4
		c-0.4,0-0.7,0-0.9,0.1V58.1z"/>
	<path class="st2-footer" d="M148.5,52.6v6.2h-0.8v-6.2H148.5z"/>
	<path class="st2-footer" d="M158.1,58.5c-0.3,0.1-0.9,0.3-1.6,0.3c-1.7,0-3-1.1-3-3.1c0-1.9,1.3-3.2,3.2-3.2c0.8,0,1.3,0.2,1.5,0.3
		l-0.2,0.6c-0.3-0.1-0.7-0.3-1.2-0.3c-1.4,0-2.4,0.9-2.4,2.5c0,1.5,0.9,2.5,2.4,2.5c0.5,0,1-0.1,1.3-0.3L158.1,58.5z"/>
	<path class="st2-footer" d="M163.8,52.6v6.2H163v-6.2H163.8z"/>
	<path class="st2-footer" d="M174.3,55.6c0,2.1-1.3,3.2-2.9,3.2c-1.6,0-2.8-1.3-2.8-3.1c0-2,1.2-3.2,2.9-3.2
		C173.2,52.5,174.3,53.8,174.3,55.6z M169.5,55.7c0,1.3,0.7,2.5,2,2.5c1.3,0,2-1.2,2-2.6c0-1.2-0.6-2.5-2-2.5
		C170.2,53.1,169.5,54.4,169.5,55.7z"/>
	<path class="st2-footer" d="M179.2,58.7v-6.2h0.9l2,3.1c0.5,0.7,0.8,1.4,1.1,2l0,0c-0.1-0.8-0.1-1.6-0.1-2.5v-2.6h0.7v6.2H183l-2-3.1
		c-0.4-0.7-0.8-1.4-1.2-2.1l0,0c0,0.8,0.1,1.5,0.1,2.5v2.6H179.2z"/>
	<path class="st2-footer" d="M190.1,56.8l-0.6,1.9h-0.8l2.1-6.2h1l2.1,6.2h-0.8l-0.7-1.9H190.1z M192.1,56.2l-0.6-1.8
		c-0.1-0.4-0.2-0.8-0.3-1.1h0c-0.1,0.4-0.2,0.7-0.3,1.1l-0.6,1.8H192.1z"/>
	<path class="st2-footer" d="M198.6,52.7c0.5-0.1,1.1-0.1,1.7-0.1c1.1,0,2,0.3,2.5,0.8c0.5,0.5,0.9,1.2,0.9,2.2c0,1-0.3,1.8-0.9,2.4
		c-0.6,0.6-1.5,0.9-2.7,0.9c-0.6,0-1,0-1.4-0.1V52.7z M199.4,58.1c0.2,0,0.5,0,0.8,0c1.7,0,2.6-1,2.6-2.6c0-1.5-0.8-2.4-2.5-2.4
		c-0.4,0-0.7,0-0.9,0.1V58.1z"/>
	<path class="st2-footer" d="M213.8,55.6c0,2.1-1.3,3.2-2.9,3.2c-1.6,0-2.8-1.3-2.8-3.1c0-2,1.2-3.2,2.9-3.2
		C212.7,52.5,213.8,53.8,213.8,55.6z M209,55.7c0,1.3,0.7,2.5,2,2.5c1.3,0,2-1.2,2-2.6c0-1.2-0.6-2.5-2-2.5
		C209.7,53.1,209,54.4,209,55.7z"/>
	<path class="st2-footer" d="M218.6,57.8c0.4,0.2,0.9,0.4,1.4,0.4c0.8,0,1.3-0.4,1.3-1.1c0-0.6-0.3-0.9-1.2-1.2c-1-0.4-1.6-0.9-1.6-1.7
		c0-1,0.8-1.7,2-1.7c0.6,0,1.1,0.1,1.4,0.3l-0.2,0.6c-0.2-0.1-0.6-0.3-1.2-0.3c-0.8,0-1.2,0.5-1.2,0.9c0,0.6,0.4,0.9,1.2,1.2
		c1,0.4,1.6,0.9,1.6,1.8c0,1-0.7,1.8-2.2,1.8c-0.6,0-1.2-0.2-1.6-0.4L218.6,57.8z"/>
</g>
</svg>
