<?xml version="1.0" encoding="utf-8"?>
<!-- Generator: Adobe Illustrator 16.0.0, SVG Export Plug-In . SVG Version: 6.00 Build 0)  -->
<!DOCTYPE svg PUBLIC "-//W3C//DTD SVG 1.1//EN" "http://www.w3.org/Graphics/SVG/1.1/DTD/svg11.dtd">
<svg version="1.1" id="Layer_1" xmlns="http://www.w3.org/2000/svg" xmlns:xlink="http://www.w3.org/1999/xlink" x="0px" y="0px"
	 width="100px" height="100px" viewBox="0 0 100 100" style="enable-background:new 0 0 100 100;" xml:space="preserve">
<style type="text/css">
<![CDATA[
	.st0{fill:#E6E7E8;}
	.st1{fill:none;stroke:#868686;stroke-width:2.8054;stroke-miterlimit:10;}
	.st2{fill:#59595B;}
	.st3{fill:#F2F2F2;}
	.st4{fill:none;stroke:#878787;stroke-width:3.5067;stroke-miterlimit:10;}
]]>
</style>
<g>
	<rect x="8.2" y="8.2" transform="matrix(0.1788 0.9839 -0.9839 0.1788 90.2546 -8.1355)" class="st3" width="83.7" height="83.7"/>
	<polygon class="st0" points="95.6,67.1 4.2,32 1.3,16.3 83.7,1.3 	"/>
	<polyline class="st1" points="10.8,68.5 1.3,16.3 83.7,1.3 98.7,83.7 16.3,98.7 13.6,83.9 	"/>
	<line class="st4" x1="42.5" y1="8.8" x2="49.5" y2="47.1"/>
	<line class="st4" x1="38" y1="63.2" x2="43.6" y2="93.7"/>
	<line class="st4" x1="35.8" y1="51.1" x2="63.7" y2="46.1"/>

		<rect x="24.1" y="3.3" transform="matrix(0.1787 0.9839 -0.9839 0.1787 39.9951 -13.7295)" class="st2" width="8.3" height="27.6"/>
	<polyline class="st4" points="67.1,74.6 64.1,58.5 91.7,53.5 	"/>
</g>
</svg>
